<svg width="14" height="15" viewBox="0 0 14 15" fill="none" xmlns="http://www.w3.org/2000/svg">
<path d="M9.97357 9.33644H9.34324L9.11983 9.12577C9.90176 8.23625 10.3725 7.08145 10.3725 5.8252C10.3725 3.02402 8.05066 0.753418 5.18625 0.753418C2.32185 0.753418 0 3.02402 0 5.8252C0 8.62639 2.32185 10.897 5.18625 10.897C6.47085 10.897 7.65172 10.4366 8.56131 9.67196L8.77674 9.89044V10.5069L12.7662 14.4004L13.955 13.2378L9.97357 9.33644ZM5.18625 9.33644C3.19952 9.33644 1.59577 7.76809 1.59577 5.8252C1.59577 3.88232 3.19952 2.31397 5.18625 2.31397C7.17299 2.31397 8.77674 3.88232 8.77674 5.8252C8.77674 7.76809 7.17299 9.33644 5.18625 9.33644Z" fill="#BBBBBB"/>
</svg>
